<?xml version="1.0" encoding="UTF-8"?>
<!-- Created with Inkscape (http://www.inkscape.org/) -->
<svg width="210mm" height="297mm" version="1.1" viewBox="0 0 210 297" xmlns="http://www.w3.org/2000/svg">
 <g stroke-width=".12677">
  <g transform="matrix(2.8667 0 0 -2.7013 110.05 202.56)">
   <path d="m0 0c-9.536-0.298-17.493 5.23-24.004 11.691-8.309 8.245-17.426 22.483-9.112 33.334 8.181 10.677 21.47 3.256 29.492-3.505 7.17-6.044 13.373-14.126 16.779-22.907 0.079-0.203 0.419-0.122 0.378 0.1-1.948 10.547-10.095 20.417-18.847 26.306-8.733 5.875-21.068 10.863-28.513 0.506-6.869-9.555-1.483-22.631 5.26-30.797 6.422-7.78 17.675-17.908 28.627-15.237 0.28 0.069 0.237 0.519-0.06 0.509"/>
  </g>
  <g transform="matrix(2.8667 0 0 -2.7013 111.32 95.52)">
   <path d="m0 0c7.969 5.604 13.04 15.047 24.481 10.963 11.937-4.26 8.666-19.772 4.554-28.55-5.669-12.1-17.094-29.12-32.137-28.866-0.66 0.012-0.95-0.98-0.253-1.193 7.707-2.35 15.5 4.352 20.389 9.539 6.395 6.784 11.936 15.827 14.932 24.631 2.819 8.288 3.607 20.45-5.767 24.857-9.417 4.427-21.687-2.806-26.67-10.92-0.194-0.315 0.153-0.685 0.471-0.461"/>
  </g>
  <g transform="matrix(2.8667 0 0 -2.7013 72.227 151.09)">
   <path d="m0 0c0.796 0.941 0.894 1.828 1.472 3.027 0.514 1.07 1.089 2.119 1.688 3.143 0.992 1.694 2.628 3.161 3.235 5.039 0.132 0.41-0.354 0.77-0.697 0.485-1.682-1.397-2.574-3.829-3.586-5.722-0.452-0.847-0.918-1.707-1.269-2.601-0.448-1.142-1.147-1.98-1.269-3.2-0.024-0.244 0.275-0.35 0.426-0.171"/>
  </g>
  <g transform="matrix(2.8667 0 0 -2.7013 97.163 220.39)">
   <path d="m0 0c-1.146 0.569-2.419 0.566-3.632 0.984-1.46 0.503-2.921 1.375-4.153 2.298-1.196 0.895-2.149 1.897-2.931 3.176-0.87 1.421-0.943 2.771-1.359 4.346-0.109 0.413-0.682 0.49-0.845 0.066-0.979-2.543 1.257-5.227 2.976-6.847 1.35-1.27 2.904-2.321 4.598-3.084 1.608-0.724 3.515-1.696 5.29-1.395 0.244 0.041 0.265 0.352 0.056 0.456"/>
  </g>
  <g transform="matrix(2.8667 0 0 -2.7013 68.119 196.9)">
   <path d="m0 0c0.556-2.838 2.458-4.303 5.052-5.278 0.119-0.045 0.167 0.134 0.074 0.195-1.976 1.292-3.732 2.808-4.29 5.197-0.121 0.521-0.941 0.425-0.836-0.114"/>
  </g>
  <g transform="matrix(2.8667 0 0 -2.7013 90.863 211.8)">
   <path d="m0 0c13.448 3.768 20.231 20.108 25.768 31.473 2.301 4.722 7.925 13.172 5.514 18.812-1.334 3.123-5.061 4.428-7.704 2.11-0.135-0.12 0.035-0.342 0.173-0.223 0.866 0.75 3.734 0.956 4.756 0.236 2.212-1.558 2.591-5.837 1.925-8.203-0.611-2.174-1.63-4.273-2.535-6.335-2.408-5.491-5.009-10.903-7.903-16.155-4.703-8.536-10.134-18.533-20.012-21.665-0.032-0.01-0.014-0.059 0.018-0.05"/>
  </g>
  <g transform="matrix(2.8667 0 0 -2.7013 129.94 115.53)">
   <path d="m0 0c2.282 2.019 4.129 4.567 6.253 6.757 2.59 2.67 5.493 4.585 8.42 6.808 0.211 0.161 0.023 0.473-0.219 0.397-2.844-0.894-5.34-3.294-7.439-5.334-2.575-2.503-5.307-5.409-7.197-8.475-0.063-0.101 0.092-0.233 0.182-0.153"/>
  </g>
  <g transform="matrix(2.8667 0 0 -2.7013 91.024 168.81)">
   <path d="m0 0c1.349 2.02 2.253 4.364 3.489 6.469 1.052 1.791 2.523 3.414 3.382 5.29 0.09 0.198-0.173 0.426-0.347 0.273-1.556-1.364-2.676-3.426-3.717-5.199-1.205-2.053-2.489-4.405-3.022-6.731-0.026-0.115 0.146-0.206 0.215-0.102"/>
  </g>
  <g transform="matrix(2.8667 0 0 -2.7013 78.262 208.66)">
   <path d="m0 0c0.367 0.348 0.35 1.141 0.407 1.632 0.062 0.532 0.348 1.22 0.037 1.686-0.069 0.106-0.222 0.116-0.319 0.048-0.471-0.328-0.442-1.173-0.486-1.705-0.042-0.497-0.144-1.243 0.166-1.653 0.052-0.069 0.137-0.064 0.195-8e-3"/>
  </g>
  <g transform="matrix(2.8667 0 0 -2.7013 42.124 79.421)">
   <path d="m0 0c0.056 0 0.045 0.087-0.011 0.087s-0.045-0.087 0.011-0.087"/>
  </g>
  <g transform="matrix(2.8667 0 0 -2.7013 50.128 73.118)">
   <path d="m0 0c-2.87 1.476-5.893-0.563-6.785-3.506-1.66-5.476 3.621-12.478 6.533-16.672 5.609-8.082 16.396-21.718 27.589-20.765 0.756 0.064 0.67 1.209-0.087 1.174-3.792-0.17-6.928 0.878-10.068 2.958-5.01 3.32-9.564 7.943-13.325 12.667-2.158 2.711-4.063 5.636-5.796 8.636-0.807 1.396-1.645 2.82-2.283 4.301-1.281 2.97-4.393 12.67 4.001 10.733 0.27-0.062 0.505 0.328 0.221 0.474"/>
  </g>
  <g transform="matrix(2.8667 0 0 -2.7013 129.47 182.45)">
   <path d="M 0,0 C 0.113,0 0.118,0.176 0.004,0.176 -0.109,0.176 -0.113,0 0,0"/>
  </g>
  <g transform="matrix(2.8667 0 0 -2.7013 34.011 96.916)">
   <path d="m0 0c2.96 6.21 20.01-9.452 22.5-11.673 2.524-2.252 5.202-4.455 7.212-7.198 1.13-1.542 6.28-10.475 2.761-12.361-0.219-0.118-0.016-0.46 0.198-0.332 2.548 1.515 1.309 6.676 0.478 8.978-1.769 4.899-6.085 8.338-9.846 11.672-3.371 2.987-20.314 19.169-23.525 11.019-0.058-0.145 0.153-0.25 0.222-0.105"/>
  </g>
  <g transform="matrix(2.8667 0 0 -2.7013 59.439 78.471)">
   <path d="m0 0c14.417-5.123 22.925-15.873 29.475-29.178 0.075-0.153 0.351-0.082 0.299 0.095-3.836 12.922-16.456 26.119-29.667 29.381-0.194 0.048-0.303-0.229-0.107-0.298"/>
  </g>
  <g transform="matrix(2.8667 0 0 -2.7013 76.843 153.72)">
   <path d="m0 0c0.136-0.383 0.282-0.76 0.448-1.131 0.168-0.373 0.306-0.807 0.588-1.109 0.069-0.074 0.169 4e-3 0.156 0.089-0.046 0.318-0.22 0.593-0.363 0.88-0.225 0.449-0.464 0.882-0.728 1.309-0.03 0.049-0.122 0.024-0.101-0.038"/>
  </g>
  <g transform="matrix(2.8667 0 0 -2.7013 79.132 152.86)">
   <path d="m0 0c0.455-1.434 1.152-2.884 1.985-4.136 0.1-0.15 0.305 6e-3 0.224 0.157-0.715 1.34-1.395 2.675-2.053 4.043-0.048 0.1-0.189 0.04-0.156-0.064"/>
  </g>
  <g transform="matrix(2.8667 0 0 -2.7013 82.586 148)">
   <path d="m0 0c0.333-2.368 1.399-5.385 2.879-7.283 0.099-0.127 0.288-0.016 0.241 0.132-0.434 1.386-1.221 2.696-1.769 4.047-0.423 1.044-0.769 2.124-1.25 3.142-0.028 0.06-0.109 0.02-0.101-0.038"/>
  </g>
  <g transform="matrix(2.8667 0 0 -2.7013 84.168 144.02)">
   <path d="m0 0c0.748-2.438 1.64-4.875 2.66-7.213 0.09-0.206 0.453-0.086 0.378 0.133-0.824 2.419-1.831 4.82-2.933 7.126-0.028 0.06-0.124 0.016-0.105-0.046"/>
  </g>
  <g transform="matrix(2.8667 0 0 -2.7013 87.052 140.73)">
   <path d="m0 0c0.298-1.283 0.653-2.547 1.034-3.808 0.318-1.055 0.571-2.155 1.355-2.966 0.107-0.111 0.308 0.037 0.247 0.173-0.982 2.164-1.593 4.454-2.449 6.671-0.047 0.124-0.215 0.052-0.187-0.07"/>
  </g>
  <g transform="matrix(2.8667 0 0 -2.7013 89.351 137.88)">
   <path d="m0 0c0.448-2.288 1.111-5.06 2.617-6.914 0.092-0.114 0.296 6e-3 0.25 0.142-0.415 1.239-1.129 2.391-1.621 3.61-0.422 1.044-0.808 2.117-1.134 3.194-0.022 0.072-0.126 0.04-0.112-0.032"/>
  </g>
  <g transform="matrix(2.8667 0 0 -2.7013 97.183 156.86)">
   <path d="M 0,0 C 0.287,0 0.299,0.446 0.011,0.446 -0.276,0.446 -0.288,0 0,0"/>
  </g>
  <g transform="matrix(2.8667 0 0 -2.7013 91.568 133.9)">
   <path d="m0 0c0.666-2.084 1.347-4.416 2.612-6.228 0.097-0.139 0.381-0.077 0.31 0.118-0.766 2.101-1.968 4.063-2.808 6.146-0.029 0.07-0.138 0.038-0.114-0.036"/>
  </g>
  <g transform="matrix(2.8667 0 0 -2.7013 94.372 132.01)">
   <path d="m0 0c0.587-2.095 1.607-4.146 2.614-6.068 0.135-0.258 0.514-0.032 0.388 0.227-0.951 1.955-1.809 3.995-2.866 5.895-0.04 0.071-0.159 0.028-0.136-0.054"/>
  </g>
  <g transform="matrix(2.8667 0 0 -2.7013 96.796 129.33)">
   <path d="m0 0c0.136-0.936 0.619-1.836 1.02-2.686 0.45-0.95 0.894-2.054 1.609-2.832 0.088-0.094 0.296-0.026 0.252 0.12-0.277 0.899-0.853 1.73-1.281 2.567-0.481 0.94-0.86 2.028-1.496 2.873-0.039 0.052-0.113 0.023-0.104-0.042"/>
  </g>
  <g transform="matrix(2.8667 0 0 -2.7013 106.52 135.12)">
   <path d="m0 0c0.247-0.205 0.28-0.497 0.434-0.755 0.027-0.045 0.107-0.054 0.131 1e-3 0.18 0.402-0.167 0.705-0.51 0.844-0.05 0.02-0.096-0.056-0.055-0.09"/>
  </g>
  <g transform="matrix(2.8667 0 0 -2.7013 173.91 70.069)">
   <path d="m0 0c-0.381-0.378-0.387-1.46 0.108-1.769 0.021-0.013 0.046 0 0.054 0.022 0.078 0.22 0.033 0.403 0.01 0.631-0.038 0.366 0.043 0.742-0.068 1.095-0.014 0.048-0.072 0.052-0.104 0.021"/>
  </g>
  <g transform="matrix(2.8667 0 0 -2.7013 171.64 68.842)">
   <path d="m0 0c-0.176-0.588-0.192-1.214-0.179-1.824 0.012-0.538-0.02-1.137 0.28-1.601 0.026-0.041 0.101-0.029 0.115 0.018 0.147 0.501 1e-3 1.05-0.027 1.566-0.034 0.612-8e-3 1.229-0.087 1.836-7e-3 0.054-0.088 0.054-0.102 5e-3"/>
  </g>
  <g transform="matrix(2.8667 0 0 -2.7013 168.25 69.014)">
   <path d="m0 0c-0.164-0.646-0.109-1.33-0.081-1.991 0.033-0.745 1e-3 -1.557 0.237-2.265 0.052-0.153 0.265-0.152 0.289 0.02 0.089 0.651-0.041 1.332-0.08 1.986-0.046 0.749-0.011 1.534-0.212 2.259-0.023 0.081-0.134 0.063-0.153-9e-3"/>
  </g>
  <g transform="matrix(2.8667 0 0 -2.7013 164.29 69.431)">
   <path d="m0 0c-0.167-0.581-7e-3 -1.189 0.058-1.783 0.088-0.791 0.113-1.623 0.359-2.383 0.042-0.134 0.242-0.13 0.253 0.021 0.054 0.744-0.091 1.493-0.184 2.229-0.081 0.641-0.063 1.362-0.382 1.93-0.025 0.044-0.09 0.033-0.104-0.014"/>
  </g>
  <g transform="matrix(2.8667 0 0 -2.7013 161.59 69.607)">
   <path d="m0 0c-0.072-1.598 0.082-3.379 0.455-4.931 0.039-0.162 0.301-0.137 0.295 0.035-0.057 1.611-0.23 3.302-0.471 4.894-0.023 0.151-0.272 0.167-0.279 2e-3"/>
  </g>
  <g transform="matrix(2.8667 0 0 -2.7013 158.14 70.409)">
   <path d="m0 0c-0.182-1.396-0.099-2.98 0.264-4.342 0.016-0.061 0.124-0.048 0.125 0.016 0.016 1.416-0.089 2.917-0.264 4.323-8e-3 0.069-0.116 0.077-0.125 3e-3"/>
  </g>
  <g transform="matrix(2.8667 0 0 -2.7013 159.51 71.359)">
   <path d="m0 0c0.04-1.217 0.151-2.441 0.302-3.647 0.012-0.104 0.152-0.09 0.157 9e-3 0.072 1.219-5e-3 2.456-0.244 3.656-0.024 0.118-0.219 0.107-0.215-0.018"/>
  </g>
  <g transform="matrix(2.8667 0 0 -2.7013 155.38 70.897)">
   <path d="m0 0c-0.411-2.011-0.415-4.68 0.278-6.619 0.031-0.087 0.154-0.06 0.154 0.029-1e-3 1.017-0.205 2.025-0.259 3.041-0.062 1.176 0.026 2.345 6e-3 3.52-2e-3 0.097-0.158 0.134-0.179 0.029"/>
  </g>
  <g transform="matrix(2.8667 0 0 -2.7013 156.72 76.213)">
   <path d="m0 0c0.044-1.108 0.08-2.202 0.235-3.303 0.01-0.075 0.137-0.073 0.136 6e-3 -0.015 1.114-0.142 2.2-0.267 3.305-6e-3 0.059-0.106 0.052-0.104-8e-3"/>
  </g>
  <g transform="matrix(2.8667 0 0 -2.7013 151.24 72.994)">
   <path d="m0 0c-0.478-2.27-0.485-4.928 0.527-7.067 0.037-0.08 0.174-0.059 0.159 0.039-0.378 2.4-0.772 4.545-0.587 7.007 5e-3 0.056-0.087 0.079-0.099 0.021"/>
  </g>
  <g transform="matrix(2.8667 0 0 -2.7013 152.17 77.928)">
   <path d="m0 0c-0.125-0.818-0.242-2.007 0.182-2.763 0.033-0.061 0.138-0.036 0.146 0.032 0.045 0.399-0.064 0.787-0.107 1.184-0.054 0.512-0.071 1.028-0.077 1.542-1e-3 0.095-0.13 0.096-0.144 5e-3"/>
  </g>
  <g transform="matrix(2.8667 0 0 -2.7013 145.77 78.405)">
   <path d="m0 0c0.254-1.988 0.652-4.315 1.427-6.168 0.029-0.067 0.143-0.036 0.139 0.035-0.128 1.999-0.806 4.26-1.462 6.155-0.023 0.063-0.113 0.047-0.104-0.022"/>
  </g>
  <g transform="matrix(2.8667 0 0 -2.7013 141.69 77.73)">
   <path d="m0 0c0.274-2.087 0.522-4.231 1.095-6.263 0.034-0.12 0.242-0.094 0.224 0.036-0.294 2.095-0.83 4.166-1.219 6.246-0.012 0.065-0.109 0.046-0.1-0.019"/>
  </g>
  <g transform="matrix(2.8667 0 0 -2.7013 145 98.548)">
   <path d="m0 0c7e-3 0 6e-3 0.01-1e-3 0.01s-6e-3 -0.01 1e-3 -0.01"/>
  </g>
  <g transform="matrix(2.8667 0 0 -2.7013 135.27 82.093)">
   <path d="m0 0c0.135-2.611 0.657-5.241 1.235-7.786 0.049-0.217 0.368-0.117 0.327 0.095-0.482 2.562-0.869 5.163-1.455 7.703-0.013 0.058-0.11 0.051-0.107-0.012"/>
  </g>
  <g transform="matrix(2.8667 0 0 -2.7013 138.72 83.412)">
   <path d="m0 0c0.069-1.744 0.112-3.728 0.8-5.356 0.03-0.071 0.128-0.04 0.125 0.032-0.059 1.759-0.59 3.569-0.812 5.324-9e-3 0.069-0.116 0.074-0.113 0"/>
  </g>
  <g transform="matrix(2.8667 0 0 -2.7013 133.56 94.009)">
   <path d="m0 0c0.088-1.453 0.269-3.237 0.88-4.575 0.04-0.088 0.17-0.052 0.161 0.044-0.131 1.493-0.627 3.076-0.944 4.547-0.014 0.062-0.101 0.046-0.097-0.016"/>
  </g>
  <g transform="matrix(2.8667 0 0 -2.7013 136.35 106.28)">
   <path d="m0 0c3e-3 0 3e-3 5e-3 0 5e-3s-3e-3 -5e-3 0-5e-3"/>
  </g>
  <g transform="matrix(2.8667 0 0 -2.7013 125.8 89.896)">
   <path d="m0 0c0.143-0.98 0.521-1.917 0.811-2.863 0.326-1.065 0.543-2.178 0.92-3.222 0.036-0.098 0.171-0.043 0.165 0.049-0.074 1.028-0.426 2.042-0.732 3.021-0.317 1.019-0.601 2.094-1.099 3.039-0.019 0.038-0.07 0.014-0.065-0.024"/>
  </g>
  <g transform="matrix(2.8667 0 0 -2.7013 124.22 101.7)">
   <path d="M 0,0 C -0.007,-1.313 0.388,-2.613 0.917,-3.805 0.982,-3.953 1.21,-3.84 1.143,-3.691 0.604,-2.496 0.341,-1.272 0.104,0.008 0.094,0.066 0,0.061 0,0"/>
  </g>
  <g transform="matrix(2.8667 0 0 -2.7013 127.14 110.94)">
   <path d="m0 0c3e-3 0 3e-3 5e-3 0 5e-3s-3e-3 -5e-3 0-5e-3"/>
  </g>
  <g transform="matrix(2.8667 0 0 -2.7013 126.02 99.635)">
   <path d="m0 0c0.254-0.832 0.514-1.66 0.73-2.503 0.187-0.728 0.286-1.496 0.552-2.199 0.044-0.116 0.196-0.058 0.196 0.051 4e-3 1.546-0.738 3.319-1.408 4.681-0.019 0.039-0.083 0.011-0.07-0.03"/>
  </g>
  <g transform="matrix(2.8667 0 0 -2.7013 130 112.83)">
   <path d="M 0,0 C 0.287,0 0.299,0.446 0.011,0.446 -0.276,0.446 -0.288,0 0,0"/>
  </g>
  <g transform="matrix(2.8667 0 0 -2.7013 129.43 89.587)">
   <path d="m0 0c-0.069-0.764 0.072-1.806 0.532-2.436 0.045-0.061 0.162-0.032 0.148 0.053-0.049 0.292-0.167 0.559-0.252 0.842-0.154 0.51-0.203 1.027-0.292 1.547-0.013 0.077-0.129 0.072-0.136-6e-3"/>
  </g>
  <g transform="matrix(2.8667 0 0 -2.7013 133.6 111.7)">
   <path d="M 0,0 C 0.287,0 0.299,0.446 0.011,0.446 -0.276,0.446 -0.288,0 0,0"/>
  </g>
  <g transform="matrix(2.8667 0 0 -2.7013 118.36 101.48)">
   <path d="m0 0c1.668 2.73 3.34 4.85 5.994 6.752 2.295 1.644 5.027 2.686 7.204 4.481 0.163 0.135 0.069 0.442-0.167 0.365-2.573-0.838-4.822-2.605-6.939-4.242-2.44-1.886-5.114-4.287-6.677-6.965-0.226-0.389 0.347-0.78 0.585-0.391"/>
  </g>
  <g transform="matrix(2.8667 0 0 -2.7013 77.556 156.36)">
   <path d="m0 0c1.306 2.771 2.75 5.496 4.031 8.275 0.076 0.165-0.181 0.29-0.28 0.143-1.657-2.472-3.083-5.401-4.24-8.141-0.137-0.325 0.332-0.61 0.489-0.277"/>
  </g>
  <g transform="matrix(2.8667 0 0 -2.7013 89.908 132.43)">
   <path d="M 0,0 C 0.023,0 0.021,0.035 -0.001,0.035 -0.024,0.035 -0.022,0 0,0"/>
  </g>
  <g transform="matrix(2.8667 0 0 -2.7013 185.32 81.856)">
   <path d="m0 0c-0.706-9.756-6.143-18.714-10.569-27.203-0.054-0.103 0.119-0.204 0.178-0.103 4.665 8.044 10.363 17.773 10.447 27.298 0 0.035-0.054 0.045-0.056 8e-3"/>
  </g>
  <g transform="matrix(2.8667 0 0 -2.7013 179.42 67.513)">
   <path d="m0 0c2.204-1.264 2.651-3.803 2.986-6.11 7e-3 -0.041 0.067-0.03 0.063 0.01-0.24 2.372-0.662 4.997-3.028 6.148-0.031 0.015-0.05-0.031-0.021-0.048"/>
  </g>
  <g transform="matrix(2.8667 0 0 -2.7013 188.18 73.105)">
   <path d="m0 0c0.477-0.973 0.636-1.778 0.775-2.851 4e-3 -0.031 0.051-0.031 0.056 0 0.163 0.968-0.203 2.116-0.774 2.892-0.025 0.033-0.074-7e-3 -0.057-0.041"/>
  </g>
  <g transform="matrix(2.8667 0 0 -2.7013 188.12 70.037)">
   <path d="m0 0c0.442-0.586 0.925-1.083 1.243-1.761 0.253-0.539 0.361-1.106 0.514-1.676 0.016-0.058 0.108-0.052 0.108 0.012-2e-3 1.214-0.798 2.799-1.85 3.44-0.011 6e-3 -0.023-5e-3 -0.015-0.015"/>
  </g>
  <g transform="matrix(2.8667 0 0 -2.7013 196.73 77.242)">
   <path d="m0 0c1.94-5.064 2.503-9.76 1.651-15.158-9e-3 -0.06 0.077-0.071 0.091-0.014 1.226 5.048 0.65 10.543-1.714 15.187-9e-3 0.018-0.035 3e-3 -0.028-0.015"/>
  </g>
  <g transform="matrix(2.8667 0 0 -2.7013 200.71 122.19)">
   <path d="m0 0c-0.262-0.832-0.545-1.661-0.778-2.502-6e-3 -0.019 0.024-0.028 0.03-9e-3 0.277 0.827 0.506 1.673 0.755 2.509 1e-3 5e-3 -6e-3 6e-3 -7e-3 2e-3"/>
  </g>
  <g transform="matrix(2.8667 0 0 -2.7013 197.52 132.52)">
   <path d="m0 0c-0.322-0.761-0.611-1.539-0.822-2.338-4e-3 -0.016 0.018-0.024 0.023-9e-3 0.24 0.793 0.492 1.576 0.805 2.344 2e-3 4e-3 -4e-3 7e-3 -6e-3 3e-3"/>
  </g>
  <g transform="matrix(2.8667 0 0 -2.7013 85.831 214.07)">
   <path d="m0 0c4.597-1.042 10.085 3.144 12.596 6.618 0.049 0.069-0.049 0.146-0.102 0.08-3.16-3.829-7.394-6.587-12.488-6.671-0.015 0-0.023-0.023-6e-3 -0.027"/>
  </g>
  <g transform="matrix(2.8667 0 0 -2.7013 102.79 214.52)">
   <path d="m0 0c9e-3 0 7e-3 0.015-1e-3 0.015-0.01 0-8e-3 -0.015 1e-3 -0.015"/>
  </g>
  <g transform="matrix(2.8667 0 0 -2.7013 94.691 216.03)">
   <path d="m0 0c1.445 0.049 2.879 0.479 4.174 1.104 0.05 0.024 0.024 0.104-0.029 0.083-1.354-0.56-2.704-0.856-4.148-1.071-0.072-0.011-0.074-0.119 3e-3 -0.116"/>
  </g>
  <g transform="matrix(2.8667 0 0 -2.7013 100.19 216.9)">
   <path d="M 0,0 C 1.754,0.327 3.343,0.883 4.822,1.901 4.904,1.958 4.826,2.087 4.741,2.033 3.285,1.119 1.682,0.391 -0.016,0.068 -0.06,0.06 -0.044,-0.009 0,0"/>
  </g>
  <g transform="matrix(2.8667 0 0 -2.7013 105.73 216.09)">
   <path d="m0 0c1.556-0.491 3.234-0.3 4.675 0.44 0.057 0.03 0.015 0.13-0.046 0.106-1.527-0.61-3-0.726-4.609-0.475-0.046 7e-3 -0.066-0.056-0.02-0.071"/>
  </g>
  <g transform="matrix(2.8667 0 0 -2.7013 111.41 218.2)">
   <path d="M 0,0 C 1.04,-0.239 2.435,0.495 3.408,0.868 4.823,1.409 6.169,2.098 7.458,2.893 7.51,2.925 7.475,3.013 7.417,2.982 6.231,2.361 5.029,1.789 3.786,1.29 2.644,0.831 1.25,0.141 0.007,0.079 -0.038,0.077 -0.045,0.01 0,0"/>
  </g>
  <g transform="matrix(2.8667 0 0 -2.7013 135.66 206.52)">
   <path d="m0 0c3e-3 0 3e-3 5e-3 0 5e-3s-3e-3 -5e-3 0-5e-3"/>
  </g>
  <g transform="matrix(2.8667 0 0 -2.7013 135.15 210.93)">
   <path d="m0 0c7.266 5.352 13.187 12.205 17.395 20.186 0.023 0.043-0.044 0.081-0.068 0.038-4.383-7.963-10.135-14.663-17.369-20.175-0.032-0.026 9e-3 -0.072 0.042-0.049"/>
  </g>
  <g transform="matrix(2.8667 0 0 -2.7013 33.007 86.493)">
   <path d="m0 0c-0.098 0.115-0.114 0.248-0.049 0.399l-0.28 0.123c7e-3 -0.614 0.112-1.222 0.265-1.816 0.103-0.402 0.176-0.885 0.488-1.176 0.077-0.072 0.211-0.04 0.221 0.075 0.048 0.548-0.264 1.049-0.383 1.581-0.102 0.456-0.167 0.916-0.239 1.376-0.046 0.297-0.489 0.103-0.319-0.125 0.108-0.142 0.152-0.315 0.26-0.459 0.016-0.022 0.05-1e-3 0.036 0.022"/>
  </g>
  <g transform="matrix(2.8667 0 0 -2.7013 34.323 78.117)">
   <path d="m0 0c-0.417-1.518-0.289-3.602 0.256-5.075 0.052-0.141 0.304-0.158 0.292 0.026-0.05 0.78-0.218 1.547-0.287 2.326-0.08 0.902-0.037 1.815-0.147 2.71-8e-3 0.065-0.096 0.079-0.114 0.013"/>
  </g>
  <g transform="matrix(2.8667 0 0 -2.7013 38.588 90.806)">
   <path d="m0 0c0.129-4e-3 -0.096 0.568-0.139 0.789-0.095 0.493-0.167 0.989-0.212 1.49-0.066 0.75 0.033 1.519-0.105 2.257-0.018 0.098-0.152 0.081-0.18 1e-3 -0.248-0.714-0.167-1.534-0.095-2.274 0.073-0.753 0.151-1.702 0.536-2.372 0.032-0.056 0.109-0.094 0.17-0.057 0.095 0.058 0.111 0.078 0.078 0.175-1e-3 4e-3 -5e-3 5e-3 -8e-3 5e-3 -0.015-1e-3 -0.031-2e-3 -0.046-3e-3 -7e-3 -1e-3 -6e-3 -0.011 1e-3 -0.011"/>
  </g>
  <g transform="matrix(2.8667 0 0 -2.7013 38.33 73.844)">
   <path d="m0 0c-0.132-1.911 0.077-4.185 0.709-5.999 0.048-0.136 0.275-0.114 0.262 0.043-0.169 1.968-0.515 4.016-0.828 5.97-0.014 0.083-0.137 0.065-0.143-0.014"/>
  </g>
  <g transform="matrix(2.8667 0 0 -2.7013 40.885 91.7)">
   <path d="M 0,0 C 0.287,0 0.299,0.446 0.011,0.446 -0.276,0.446 -0.288,0 0,0"/>
  </g>
  <g transform="matrix(2.8667 0 0 -2.7013 43.001 91.906)">
   <path d="m0 0c-0.098 1.123-0.337 2.324-0.606 3.417-0.024 0.097-0.176 0.091-0.178-0.014-0.022-1.126 0.179-2.402 0.612-3.444 0.034-0.082 0.18-0.049 0.172 0.041"/>
  </g>
  <g transform="matrix(2.8667 0 0 -2.7013 41.424 73.111)">
   <path d="m0 0c-0.163-1.693 0.201-3.736 0.577-5.385 0.031-0.136 0.256-0.126 0.254 0.023-0.039 1.693-0.191 3.766-0.762 5.368-0.013 0.037-0.065 0.036-0.069-6e-3"/>
  </g>
  <g transform="matrix(2.8667 0 0 -2.7013 44.012 72.475)">
   <path d="m0 0c0.202-1.7 0.561-3.86 1.407-5.369 0.044-0.078 0.147-0.026 0.136 0.054-0.118 0.903-0.483 1.789-0.714 2.672-0.232 0.89-0.423 1.79-0.653 2.68-0.03 0.113-0.189 0.076-0.176-0.037"/>
  </g>
  <g transform="matrix(2.8667 0 0 -2.7013 52.265 94.692)">
   <path d="m0 0c0.097-1e-3 0.194-1e-3 0.292-1e-3 0.047 0 0.048 0.071 0 0.073l-0.288 0.015c-0.063 3e-3 -0.068-0.087-4e-3 -0.087"/>
  </g>
  <g transform="matrix(2.8667 0 0 -2.7013 52.71 95.053)">
   <path d="m0 0-9e-3 -0.076c-3e-3 -0.028 0.013-0.06 0.041-0.069 0.03-0.01 0.06-0.02 0.09-0.03 0.039-0.013 0.094-0.011 0.12 0.029 0.291 0.447-0.294 1.453-0.429 1.868-0.373 1.151-0.75 2.29-1.232 3.4-0.041 0.094-0.175 0.05-0.151-0.05 0.222-0.914 0.502-1.8 0.808-2.688 0.252-0.733 0.419-1.723 0.831-2.366-0.021 0.032-0.065 0.018-0.069-0.018"/>
  </g>
  <g transform="matrix(2.8667 0 0 -2.7013 47.394 91.173)">
   <path d="m0 0c-0.272 0.574-0.355 1.162-0.502 1.773-0.019 0.081-0.128 0.069-0.14-9e-3 -0.095-0.658 0.161-1.299 0.479-1.862 0.061-0.108 0.214-0.01 0.163 0.098"/>
  </g>
  <g transform="matrix(2.8667 0 0 -2.7013 130.3 163.64)">
   <path d="m0 0c0.223 3.452 0.231 6.891 0.636 10.334 0.027 0.232-0.334 0.263-0.361 0.031-0.4-3.401-0.721-6.945-0.362-10.361 5e-3 -0.048 0.084-0.056 0.087-4e-3"/>
  </g>
  <g transform="matrix(2.8667 0 0 -2.7013 130.21 168.01)">
   <path d="m0 0c0.624 3.319 1.268 6.638 1.803 9.974 0.026 0.164-0.222 0.235-0.255 0.067-0.656-3.32-1.158-6.671-1.623-10.022-7e-3 -0.048 0.066-0.069 0.075-0.019"/>
  </g>
  <g transform="matrix(2.8667 0 0 -2.7013 137.52 143.83)">
   <path d="m0 0c-0.303-4.64-1.127-9.045-2.448-13.508-0.048-0.162 0.195-0.229 0.25-0.073 1.535 4.366 2.279 8.964 2.282 13.586 0 0.056-0.081 0.048-0.084-5e-3"/>
  </g>
  <g transform="matrix(2.8667 0 0 -2.7013 138.9 151.47)">
   <path d="m0 0c0.069 0.079-0.129-1.335-0.186-1.597-0.18-0.837-0.346-1.676-0.516-2.514-0.315-1.561-0.665-3.129-0.847-4.711-0.012-0.104 0.151-0.127 0.179-0.03 0.856 3.013 1.449 6.267 1.81 9.377 6e-3 0.049-0.061 0.073-0.089 0.034-0.126-0.18-0.252-0.359-0.378-0.538-0.012-0.016 0.014-0.037 0.027-0.021"/>
  </g>
  <g transform="matrix(2.8667 0 0 -2.7013 140.91 154.28)">
   <path d="m0 0c-0.307-1.96-0.663-3.915-0.959-5.877-0.03-0.196 0.295-0.283 0.345-0.084 0.489 1.94 0.685 3.957 0.69 5.952 1e-3 0.043-0.069 0.054-0.076 9e-3"/>
  </g>
  <g transform="matrix(2.8667 0 0 -2.7013 143.28 155.54)">
   <path d="m0 0c-0.073-0.444-0.072-0.896-0.149-1.341-0.068-0.392-0.161-0.779-0.228-1.171-0.022-0.124 0.146-0.148 0.198-0.052 0.397 0.73 0.527 1.771 0.257 2.567-0.012 0.036-0.071 0.039-0.078-3e-3"/>
  </g>
  <g transform="matrix(2.8667 0 0 -2.7013 128.52 129.18)">
   <path d="m0 0c-0.382-2.161-0.155-4.645 0.054-6.823 9e-3 -0.098 0.143-0.095 0.151 2e-3 0.176 2.175 0.366 4.662-0.045 6.814-0.016 0.086-0.143 0.104-0.16 7e-3"/>
  </g>
  <g transform="matrix(2.8667 0 0 -2.7013 125.32 153.93)">
   <path d="m0 0c0.25 1.925 0.294 3.851 0.121 5.783-0.012 0.124-0.192 0.115-0.194-9e-3 -0.02-1.922-0.023-3.845-0.01-5.768 0-0.048 0.077-0.054 0.083-6e-3"/>
  </g>
  <g transform="matrix(2.8667 0 0 -2.7013 124.77 122.32)">
   <path d="m0 0c-0.279-1.903-0.328-3.774 0.076-5.666 0.028-0.13 0.234-0.086 0.226 0.042-0.109 1.87-0.249 3.744-0.219 5.618 1e-3 0.048-0.076 0.053-0.083 6e-3"/>
  </g>
  <g transform="matrix(2.8667 0 0 -2.7013 117.17 113.78)">
   <path d="m0 0c0.308-3.396 0.134-7.047 0.812-10.38 0.014-0.064 0.1-0.046 0.108 0.012 0.453 3.332-0.288 7.081-0.801 10.374-0.011 0.074-0.126 0.072-0.119-6e-3"/>
  </g>
  <g transform="matrix(2.8667 0 0 -2.7013 117.02 142.15)">
   <path d="m0 0c-0.188 2.133-0.549 4.262-0.776 6.394-0.01 0.091-0.147 0.099-0.147 2e-3 -0.016-2.129 0.172-4.379 0.841-6.412 0.015-0.045 0.086-0.032 0.082 0.016"/>
  </g>
  <g transform="matrix(2.8667 0 0 -2.7013 109.25 107.92)">
   <path d="m0 0c0.582-3.429 0.667-6.83 1.043-10.269 0.01-0.086 0.132-0.06 0.143 0.014 0.469 3.354-0.182 7.052-1.098 10.276-0.014 0.05-0.096 0.03-0.088-0.021"/>
  </g>
  <g transform="matrix(2.8667 0 0 -2.7013 113.37 138.9)">
   <path d="m0 0c0.032 0 0.028 0.049-4e-3 0.049s-0.028-0.049 4e-3 -0.049"/>
  </g>
  <g transform="matrix(2.8667 0 0 -2.7013 104.03 103.48)">
   <path d="m0 0c0.359-1.999 0.569-3.913 0.673-5.937 7e-3 -0.121 0.188-0.108 0.206 2e-3 0.312 1.975 0.033 4.14-0.765 5.971-0.031 0.071-0.127 0.039-0.114-0.036"/>
  </g>
  <g transform="matrix(2.8667 0 0 -2.7013 99.795 100.19)">
   <path d="m0 0c0.292-2.411 0.977-4.891 1.442-7.283 0.022-0.112 0.212-0.116 0.209 7e-3 -0.061 2.38-0.454 5.17-1.519 7.321-0.037 0.074-0.142 0.033-0.132-0.045"/>
  </g>
  <g transform="matrix(2.8667 0 0 -2.7013 103.9 130.41)">
   <path d="m0 0c0.211 0.909 0.109 2.196-0.329 3.024-0.062 0.117-0.236 0.087-0.231-0.054 0.02-0.505 0.164-0.997 0.238-1.496 0.073-0.49 0.101-0.992 0.213-1.474 0.013-0.055 0.096-0.055 0.109 0"/>
  </g>
  <g transform="matrix(2.8667 0 0 -2.7013 99.478 126.11)">
   <path d="m0 0c0.259 1.865 0.13 3.853-0.422 5.655-0.036 0.116-0.191 0.073-0.178-0.042 0.209-1.878 0.389-3.723 0.491-5.61 4e-3 -0.071 0.1-0.071 0.109-3e-3"/>
  </g>
  <g transform="matrix(2.8667 0 0 -2.7013 93.658 104.04)">
   <path d="m0 0c0.276-2.206 0.466-4.493 0.928-6.667 0.017-0.079 0.156-0.107 0.16-7e-3 0.097 2.22-0.386 4.567-1.009 6.688-0.013 0.043-0.085 0.033-0.079-0.014"/>
  </g>
  <g transform="matrix(2.8667 0 0 -2.7013 93.198 115.91)">
   <path d="m0 0c-0.18 2.323-0.37 5.019-1.36 7.156-0.045 0.095-0.175 0.041-0.166-0.053 0.22-2.367 1.037-4.757 1.442-7.108 9e-3 -0.052 0.088-0.05 0.084 5e-3"/>
  </g>
  <g transform="matrix(2.8667 0 0 -2.7013 84.997 89.587)">
   <path d="m0 0c-5e-3 0.03-0.011 0.062-0.017 0.093-4e-3 0.028-0.021 0.05-0.05 0.055-0.041 0.01-0.082 0.019-0.123 0.028-0.04 8e-3 -0.093-0.016-0.108-0.055-0.327-0.847 0.329-2.178 0.538-3.032 0.352-1.439 0.694-2.879 1.191-4.276 0.03-0.084 0.17-0.058 0.156 0.036-0.164 1.097-0.417 2.171-0.685 3.248-0.132 0.53-0.268 1.059-0.404 1.59-0.159 0.62-0.233 1.749-0.571 2.279 0.026-0.041 0.081-9e-3 0.073 0.034"/>
  </g>
  <g transform="matrix(2.8667 0 0 -2.7013 78.17 86.485)">
   <path d="m0 0c0.425-2.202 1.317-4.324 1.768-6.539 0.012-0.06 0.101-0.048 0.094 0.013-0.234 2.145-0.619 4.698-1.787 6.562-0.027 0.044-0.083 7e-3 -0.075-0.036"/>
  </g>
  <g transform="matrix(2.8667 0 0 -2.7013 84.691 106.08)">
   <path d="m0 0c-0.078 0.121-0.135 0.251-0.171 0.391-0.045 0.128-0.27 0.068-0.234-0.066 0.486-1.779 0.919-3.711 1.656-5.398 0.028-0.065 0.13-0.046 0.123 0.028-0.188 1.82-0.889 3.734-1.545 5.436l-0.186-0.147c0.095-0.098 0.19-0.196 0.285-0.295 0.037-0.044 0.098 2e-3 0.072 0.051"/>
  </g>
  <g transform="matrix(2.8667 0 0 -2.7013 94.729 96.351)">
   <path d="m0 0c0.512-1.368 0.82-2.795 1.109-4.223 0.018-0.089 0.16-0.057 0.155 0.031-0.086 1.502-0.54 2.88-1.191 4.225-0.02 0.041-0.089 9e-3 -0.073-0.033"/>
  </g>
  <g transform="matrix(2.8667 0 0 -2.7013 82.947 114.46)">
   <path d="m0 0c-0.263 1.83-0.796 3.679-1.475 5.396-0.028 0.075-0.152 0.034-0.131-0.043 0.472-1.791 0.962-3.602 1.527-5.366 0.014-0.042 0.086-0.034 0.079 0.013"/>
  </g>
  <g transform="matrix(2.8667 0 0 -2.7013 73.512 85.229)">
   <path d="m0 0c0.681-1.176 1.211-2.381 1.518-3.709 0.025-0.107 0.181-0.083 0.17 0.027-0.134 1.386-0.618 2.71-1.494 3.802-0.089 0.112-0.27 0.011-0.194-0.12"/>
  </g>
  <g transform="matrix(2.8667 0 0 -2.7013 67.119 81.254)">
   <path d="m0 0c0.838-1.233 1.785-3.404 2.205-5.015 0.022-0.086 0.16-0.06 0.135 0.024-0.566 1.909-1.081 3.888-2.42 5.438-0.051 0.06-0.148 0.034-0.146-0.051 6e-3 -0.288-0.029-0.216 0.188-0.432 0.022-0.022 0.054 0.013 0.038 0.036"/>
  </g>
  <g transform="matrix(2.8667 0 0 -2.7013 77.984 110.73)">
   <path d="m0 0c-0.255 1.599-0.719 3.021-1.433 4.477-0.036 0.073-0.166 0.025-0.136-0.054 0.547-1.457 1.052-2.948 1.525-4.431 7e-3 -0.024 0.048-0.017 0.044 8e-3"/>
  </g>
  <g transform="matrix(2.8667 0 0 -2.7013 70.477 102.6)">
   <path d="m0 0c-0.037 1.344-0.278 2.641-0.812 3.879-0.031 0.072-0.141 0.036-0.117-0.04 0.401-1.259 0.711-2.526 0.848-3.842 6e-3 -0.052 0.082-0.05 0.081 3e-3"/>
  </g>
  <g transform="matrix(2.8667 0 0 -2.7013 62.339 79.663)">
   <path d="m0 0c0.18-0.405 0.365-0.808 0.556-1.208 0.019-0.041 0.079-8e-3 0.062 0.033-0.175 0.404-0.353 0.803-0.538 1.201-0.022 0.049-0.102 0.024-0.08-0.026"/>
  </g>
  <g transform="matrix(2.8667 0 0 -2.7013 15.233 84.712)">
   <path d="m0 0c-4.354-7.352-2.102-16.312 3.043-22.698 0.025-0.031 0.07 7e-3 0.047 0.037-5.018 6.808-6.669 14.894-2.987 22.606 0.031 0.068-0.065 0.12-0.103 0.055"/>
  </g>
  <g transform="matrix(2.8667 0 0 -2.7013 20.932 79.592)">
   <path d="m0 0c-0.423-0.979-0.842-2.092-0.901-3.168-3e-3 -0.052 0.07-0.048 0.084-6e-3 0.321 1.041 0.512 2.114 0.865 3.153 0.011 0.032-0.034 0.053-0.048 0.021"/>
  </g>
  <g transform="matrix(2.8667 0 0 -2.7013 21.289 85.644)">
   <path d="m0 0c0.185 1.719 1.06 3.239 2.417 4.3 0.032 0.025-0.011 0.082-0.045 0.058-1.487-1.004-2.347-2.573-2.442-4.355-3e-3 -0.046 0.065-0.047 0.07-3e-3"/>
  </g>
  <g transform="matrix(2.8667 0 0 -2.7013 24.302 81.937)">
   <path d="M 0,0 C 0.773,1.261 1.757,2.346 2.909,3.272 2.941,3.298 2.9,3.345 2.868,3.32 1.68,2.423 0.722,1.305 -0.021,0.015 -0.028,0.001 -0.008,-0.014 0,0"/>
  </g>
  <g transform="matrix(2.8667 0 0 -2.7013 33.059 73.132)">
   <path d="M 0,0 C 0.034,0 0.028,0.053 -0.005,0.053 -0.039,0.053 -0.034,0 0,0"/>
  </g>
  <g transform="matrix(2.8667 0 0 -2.7013 26.525 92.645)">
   <path d="m0 0c0.345-2.979 1.57-5.867 3.401-8.235 0.023-0.03 0.065 4e-3 0.045 0.034-1.718 2.576-2.742 5.159-3.355 8.211-0.011 0.056-0.098 0.049-0.091-0.01"/>
  </g>
  <g transform="matrix(2.8667 0 0 -2.7013 50.45 134.36)">
   <path d="m0 0c6.333-8.137 15.31-19.808 26.829-19.35 0.05 2e-3 0.049 0.079-1e-3 0.078-11.641-0.222-20.073 11.469-26.782 19.31-0.025 0.029-0.069-7e-3 -0.046-0.038"/>
  </g>
  <g transform="matrix(2.8667 0 0 -2.7013 103.36 95.911)">
   <path d="m0 0c1.533-1.732 3.084-3.481 4.689-5.146 0.056-0.059 0.155 6e-3 0.104 0.077-1.342 1.87-2.982 3.631-4.714 5.144-0.052 0.046-0.126-0.021-0.079-0.075"/>
  </g>
  <g transform="matrix(2.8667 0 0 -2.7013 110.99 99.941)">
   <path d="m0 0c1.396-2.236 3.085-4.282 4.95-6.143 0.081-0.081 0.208 0.03 0.134 0.12-1.678 2.019-3.326 4.065-5.009 6.082-0.04 0.047-0.107-8e-3 -0.075-0.059"/>
  </g>
  <g transform="matrix(2.8667 0 0 -2.7013 128.26 117.94)">
   <path d="m0 0c1.121-1.669 1.94-3.479 2.684-5.339 0.047-0.117 0.237-0.039 0.204 0.08-0.541 1.975-1.555 3.712-2.828 5.307-0.027 0.033-0.084-0.013-0.06-0.048"/>
  </g>
  <g transform="matrix(2.8667 0 0 -2.7013 113.56 97.417)">
   <path d="M 0,0 C 0.691,1.06 1.443,2.054 2.225,3.049 2.273,3.11 2.176,3.197 2.121,3.141 1.227,2.242 0.453,1.203 -0.194,0.113 -0.269,-0.012 -0.079,-0.121 0,0"/>
  </g>
  <g transform="matrix(2.8667 0 0 -2.7013 122.39 86.44)">
   <path d="m0 0c0.011 0 9e-3 0.018-2e-3 0.018s-9e-3 -0.018 2e-3 -0.018"/>
  </g>
  <g transform="matrix(2.8667 0 0 -2.7013 115.51 97.253)">
   <path d="M 0,0 C 1.271,1.447 2.551,2.886 3.772,4.376 3.805,4.416 3.747,4.47 3.712,4.431 2.42,3.002 1.187,1.524 -0.056,0.053 -0.088,0.016 -0.033,-0.038 0,0"/>
  </g>
  <g transform="matrix(2.8667 0 0 -2.7013 123.13 91.115)">
   <path d="M 0,0 C 0.995,1.128 2.011,2.239 2.966,3.401 3,3.443 2.938,3.497 2.902,3.457 1.889,2.344 0.933,1.18 -0.042,0.032 -0.063,0.007 -0.022,-0.025 0,0"/>
  </g>
  <g transform="matrix(2.8667 0 0 -2.7013 138.62 76.107)">
   <path d="m0 0c9e-3 0 7e-3 0.014-1e-3 0.014-0.01 0-8e-3 -0.014 1e-3 -0.014"/>
  </g>
  <g transform="matrix(2.8667 0 0 -2.7013 48.273 175.66)">
   <path d="m0 0c6.509-6.059 12.938-9.082 21.871-9.515 0.135-6e-3 0.157 0.2 0.021 0.21-3.939 0.31-7.819 0.555-11.485 2.164-3.92 1.722-7.088 4.53-10.35 7.221-0.05 0.041-0.102-0.038-0.057-0.08"/>
  </g>
  <g transform="matrix(2.8667 0 0 -2.7013 97.548 195.49)">
   <path d="m0 0c1.975-0.536 4.023-0.774 6.052-0.376 0.102 0.021 0.082 0.192-0.024 0.184-2.04-0.176-3.992-0.212-6.007 0.256-0.042 9e-3 -0.063-0.052-0.021-0.064"/>
  </g>
  <g transform="matrix(2.8667 0 0 -2.7013 109.36 194.31)">
   <path d="M 0,0 C 0.945,-0.104 2.138,-0.292 3.046,0.062 3.09,0.08 3.082,0.149 3.034,0.153 2.605,0.189 2.176,0.1 1.748,0.07 1.166,0.03 0.588,0.027 0.007,0.08 -0.038,0.084 -0.046,0.006 0,0"/>
  </g>
  <g transform="matrix(2.8667 0 0 -2.7013 112.18 191.05)">
   <path d="m0 0c0.83-0.442 1.87-0.429 2.778-0.234 0.119 0.025 0.109 0.188-7e-3 0.209-0.925 0.164-1.811-0.3-2.743 0.088-0.036 0.015-0.064-0.044-0.028-0.063"/>
  </g>
  <g transform="matrix(2.8667 0 0 -2.7013 116.56 188.83)">
   <path d="m0 0c0.444-0.091 0.873-0.084 1.32-0.033 0.378 0.043 0.789 0.126 1.13-0.083 0.063-0.039 0.111 0.055 0.067 0.101-0.609 0.635-1.742 0.033-2.498 0.118-0.059 6e-3 -0.078-0.091-0.019-0.103"/>
  </g>
 </g>
</svg>
